<?xml version="1.0" encoding="UTF-8"?>
<svg id="katman_1" xmlns="http://www.w3.org/2000/svg" version="1.1" viewBox="0 0 1984.25 1417.32">
  <!-- Generator: Adobe Illustrator 30.5.1, SVG Export Plug-In . SVG Version: 2.1.4 Build 3)  -->
  <defs>
    <style>
      .st0 {
        fill: none;
        opacity: 0;
        stroke: #c1da94;
        stroke-miterlimit: 10;
        stroke-width: 25px;
      }
    </style>
  </defs>
  <path id="habitability" class="st0" d="M577.43,601.68c25.35-3,50.74-6.07,76.08-7.7,65.06-4.45,125.09,5.15,186.73,21.18,32.55,8.57,64.7,19.64,97.47,31.28,40.09,14.46,81.54,28.39,118.26,50.03,24.29,14.01,46.85,31.56,70.07,47.53,14.26,9.73,29.23,18.62,45.6,24.15,55.39,18.71,117.91-23.5,142.21-40,45.91-31.15,75.71-74.03,135.33-159.8,19.62-28.23,35.16-50.58,54.06-83.47,35.24-61.31,57.59-116.43,71.76-157.23"/>
</svg>