<?xml version="1.0" encoding="UTF-8"?>
<svg id="katman_1" data-name="katman 1" xmlns="http://www.w3.org/2000/svg" viewBox="0 0 2579 1383">
  <defs>
    <style>
      .cls-1 {
        fill: none;
      }
    </style>
  </defs>
  <path class="cls-1" d="m1746.43,564.77l5.11-3.06,7.15-7.91s2.04-2.55,1.53-6.89,2.04-4.09-2.04-7.91-3.32-4.6-7.4-7.15-7.66-6.13-7.66-8.94-1.28-10.47-2.3-13.02-2.3-4.85-1.53-7.15,1.79-5.11,1.79-6.38,2.55-7.15,2.55-7.15l4.09-6.38s5.87-6.38,9.7-6.13,8.43-.27,9.96,0,3.06,0,4.34,1.79,1.53,4.6,1.79,7.91-.51,9.19,0,11.74.82,6.81,2.81,7.83l7.23,1.79s3.4,3.06,4.43,3.91,1.87,3.23,3.83,3.15,2.89-.94,4.68-2.13,1.7-2.13,3.4-1.87,2.13,2.13,3.23.94,1.7-2.04,1.7-3.15.94-3.66,1.36-4.26,1.79-3.32,3.15-3.74,2.13-.09,5.19-.43,3.32.34,5.87-1.02,3.57-2.55,5.02-3.23.43.77,0,2.04-6.13,6.47-6.98,7.83-6.89,7.32-6.89,8.17-1.19,6.21-.94,6.72,1.36,3.32,2.89,4.25,3.4,3.32,4.51,4.09,5.28,5.87,12.94,7.4,6.98,3.06,10.89,4.26,11.23,4.77,13.79,6.47,5.89,3.82,9.6,4.28c4.19.51,12-.36,13.02,2.36l2.81,5.55s.19,2.62-1.09,4.02-2.3,2.87-5.87,3.57-11.55,1.4-16.98,1.21-14.87-2.31-18.64-2.74c-4.04-.47-6.12-1.43-10.47-1.87s-3.77-1.26-14.36-2.4-13.98-6.06-17.94-6.19-4.6-14.7-15.96-2.26c-4.6,5.04-11.26-2.47-13.62,2.77s-8.85,9.83-10,10.6-4.72.89-6.13.89-3.57-2.17-3.57-2.17Z"/>
</svg>