<?xml version="1.0" encoding="utf-8"?>
<!-- Generator: Adobe Illustrator 27.6.1, SVG Export Plug-In . SVG Version: 6.00 Build 0)  -->
<svg version="1.1" id="Layer_1" xmlns="http://www.w3.org/2000/svg" xmlns:xlink="http://www.w3.org/1999/xlink" x="0px" y="0px"
	 viewBox="0 0 1191.1 841.9" style="enable-background:new 0 0 1191.1 841.9;" xml:space="preserve">
<style type="text/css">
	.st0{fill:none;}
</style>
<g id="svg2">
	<path class="st0" d="M563.4,668.1l13.4,14.1l-0.9,8l4.6,3.6l-2.7,7.3l-5.9,5.8c0,0-4.9,1.5-5.5,1.5s-3.9,3.9-3.9,3.9l1.2,10.7h-3.9
		l-1.5-14.1l-6.5-2.4c0,0-4.9-4.1-5.3-4.6c-0.3-0.5,1.4-6.4,1.4-6.4s-5.1-3.1-5.1-4.3s4.8-6.8,4.8-6.8l3.1-2c0,0-0.9-4.1-0.2-5.1
		s6.6-3.6,6.6-3.6l2.2-4.4L563.4,668.1z"/>
	<path class="st0" d="M588.2,700.4l10.5,9.4l-0.7,5.3l3.6,2.4l-2.1,4.9l-4.6,3.9c0,0-3.8,1-4.3,1s-3.1,2.6-3.1,2.6l0.9,7.2h-3.1
		l-1.2-9.4l-5.1-1.6c0,0-3.9-2.7-4.1-3.1c-0.3-0.3,1.1-4.3,1.1-4.3s-4-2.1-4-2.9s3.7-4.5,3.7-4.5l2.4-1.4c0,0-0.7-2.7-0.1-3.4
		c0.5-0.7,5.2-2.4,5.2-2.4l1.7-3L588.2,700.4z"/>
	<path class="st0" d="M532.2,690.8l14,12.6l-0.9,7.1l4.8,3.2l-2.8,6.5l-6.1,5.1c0,0-5.1,1.4-5.8,1.4s-4.1,3.5-4.1,3.5l1.2,9.5h-4.1
		l-1.6-12.6l-6.7-2.1c0,0-5.1-3.6-5.5-4.1s1.4-5.7,1.4-5.7s-5.3-2.8-5.3-3.9c0-1.1,5-6.1,5-6.1l3.2-1.8c0,0-0.9-3.6-0.2-4.5
		s6.9-3.2,6.9-3.2l2.3-3.9L532.2,690.8z"/>
	<path class="st0" d="M557.4,741.3l6,5.4l-0.4,3l2,1.4l-1.2,2.8l-2.6,2.2c0,0-2.2,0.6-2.5,0.6s-1.7,1.5-1.7,1.5l-1.9-1.3l-2.9-0.9
		c0,0-2.2-1.6-2.4-1.7c-0.2-0.2,0.6-2.4,0.6-2.4s-2.3-1.2-2.3-1.7s2.1-2.6,2.1-2.6l1.4-0.8c0,0-0.4-1.6-0.1-1.9c0.3-0.4,3-1.4,3-1.4
		l1-1.7L557.4,741.3z"/>
	<path class="st0" d="M570.9,727.8l6,5.4l-0.4,3l2,1.4l-1.2,2.8l-2.6,2.2c0,0-2.2,0.6-2.5,0.6s-1.7,1.5-1.7,1.5l-1.9-1.3l-2.9-0.9
		c0,0-2.2-1.6-2.4-1.7c-0.2-0.2,0.6-2.4,0.6-2.4s-2.3-1.2-2.3-1.7s2.1-2.6,2.1-2.6l1.4-0.8c0,0-0.4-1.6-0.1-1.9c0.3-0.4,3-1.4,3-1.4
		l1-1.7L570.9,727.8z"/>
	<path class="st0" d="M541.3,731.2l4.2,3.8l-0.3,2.2l1.5,1l-0.9,2l-1.9,1.6c0,0-1.5,0.4-1.7,0.4s-1.2,1.1-1.2,1.1l-1.3-0.9l-2-0.6
		c0,0-1.6-1.1-1.7-1.2s0.4-1.7,0.4-1.7s-1.6-0.8-1.6-1.2c0-0.3,1.5-1.8,1.5-1.8l1-0.5c0,0-0.3-1.1-0.1-1.4c0.2-0.3,2.1-1,2.1-1
		l0.7-1.2L541.3,731.2z"/>
	<path class="st0" d="M514.1,723.1l3.2,2.9l-0.2,1.6l1.1,0.7l-0.7,1.5l-1.4,1.2c0,0-1.2,0.3-1.3,0.3s-0.9,0.8-0.9,0.8l-1-0.7
		l-1.6-0.5c0,0-1.2-0.8-1.3-0.9c-0.1-0.1,0.3-1.3,0.3-1.3s-1.2-0.6-1.2-0.9s1.1-1.4,1.1-1.4l0.7-0.4c0,0-0.2-0.8,0-1
		s1.6-0.7,1.6-0.7l0.5-0.9L514.1,723.1z"/>
	<path class="st0" d="M346,620.4l47.8-29.4l0.3-6.9l-10.2-7.8l8.3-4.3l0.6-9.9l-12.2-7.7l-11.4-13c0,0-15.9-12.6-34.7-12.5
		c-2.3,0-23.6,7.6-23.6,7.6s-30,16.5-30.3,19.5c-0.7,6.2-0.1,15.4-0.1,15.4L346,620.4z"/>
	<path class="st0" d="M419.4,632.3l13.9-9.1l4.3,2.7v-3.2l5.6-4.5l9.7-4.7l13.3,5.9l0.8,4.5l11.1,4.9l0.6,8.6h2.3l-0.8,4.5l9.3-5.5
		l12.5,5.5l-0.5,2.9l4.6,2.8v11.2l-4.9,2.7l6.5,4l-1.7,12.9l-15.6,9.1l-4.5-1.3l-4.3,1.9c0,0-4.6-2.7-5-2.8s2.7-3.2,2.7-3.2
		l-2.6-0.5l-5.5,1l-5.6-1.5l1.3-5.9l-10-5.7l1.5-4.3l-3.7-2.6l-12.3,5.6l-13.8-8.3v-7.1h-5.1l-5.1-2.9l1.8-2.6L419.4,632.3z"/>
	<polygon class="st0" points="280.3,391.4 280.3,499.5 341.9,462.9 341.9,353.8 	"/>
</g>
</svg>
