<?xml version="1.0" encoding="UTF-8"?>
<svg id="katman_1" xmlns="http://www.w3.org/2000/svg" version="1.1" viewBox="0 0 1984.25 1417.32">
  <!-- Generator: Adobe Illustrator 30.5.1, SVG Export Plug-In . SVG Version: 2.1.4 Build 3)  -->
  <defs>
    <style>
      .st0 {
        fill: none;
        opacity: 0;
        stroke: #000;
        stroke-miterlimit: 10;
        stroke-width: 25px;
      }
    </style>
  </defs>
  <path id="_x33_" class="st0" d="M198.32,541.61c11.64-10.41,27.43-9.85,32.46-9.67,10.88.39,15.16,3.71,31.77,9.67,18.05,6.48,34.18,10.16,43.51,11.74,23.13,3.92,26.89-1.29,51.11,0,11.11.59,38.59,3.18,67.69,17.96,20.77,10.54,33.2,22.64,51.11,40.06,20.5,19.94,30.89,30.05,37.99,48.35,3.04,7.84,11.17,29.7,3.45,53.88-2.9,9.07-5.68,17.78-13.81,23.48-14.38,10.08-27.38-1.93-55.26,3.45-15.94,3.08-27.18,9.99-35.92,15.37-14.39,8.86-18.84,15.43-38.31,33.67-18.84,17.66-28.27,26.49-40.43,34.54-14.25,9.43-35.65,23.58-64.93,24.17-8.45.17-26.59.55-44.21-9.67-31.66-18.36-39.12-57.87-44.9-88.41-5.05-26.72-4.27-49.46-3.45-73.22.92-26.84,3.3-24.92,4.14-55.26.45-16.12.16-30.73,4.83-51.11,4.51-19.67,9.24-25.53,13.12-29.01Z"/>
</svg>